/* XPM */
static char *dummy[]={
"48 48 189 2",
".W c #fda611",
".S c #fea611",
"Qt c #fea711",
".M c #fea712",
"#k c #fea813",
".# c #fea814",
".w c #fea815",
"aZ c #fea916",
"aV c #fea917",
".J c #fea918",
"#8 c #feaa18",
"#e c #feaa19",
"#G c #feaa1a",
".2 c #feab1a",
"aM c #feab1b",
"ap c #feab1c",
".P c #feab1d",
".a c #feac1e",
".7 c #feac1f",
".H c #fead1f",
"aX c #fead20",
"aI c #fead21",
"#b c #fead22",
".E c #feae23",
"ar c #feae24",
"#. c #feae25",
".V c #feaf26",
".b c #feb029",
".D c #feb02a",
"#u c #feb12c",
".L c #feb22e",
"ao c #feb22f",
"#T c #feb230",
".T c #feb331",
"#9 c #feb332",
".x c #feb333",
".c c #feb434",
".4 c #feb536",
".X c #feb538",
".I c #feb637",
"#I c #feb639",
"#1 c #feb63a",
".3 c #feb73b",
"a4 c #feb73c",
".8 c #feb73d",
".d c #feb840",
"#U c #feb941",
".v c #feb942",
"a1 c #feba43",
"aD c #feba44",
".Y c #feba45",
"#q c #febb47",
"aP c #febb48",
"#i c #febb49",
"#c c #febc49",
"#w c #febc4a",
".e c #febc4b",
"aO c #febd4c",
".Z c #febd4d",
"ad c #febd4e",
"#H c #febe50",
"#t c #febf51",
"#L c #febf52",
"a0 c #fec053",
"#Q c #fec054",
".f c #fec156",
"#V c #fec157",
"#3 c #fec259",
"#h c #fec25a",
"ak c #fec35c",
"#5 c #fec35d",
"#p c #fec35e",
"aR c #fec45e",
".C c #fec45f",
".9 c #fec460",
".g c #fec561",
".1 c #fec664",
"#x c #fec665",
"aN c #fec767",
"#D c #fec768",
".U c #fec769",
"#6 c #fec86a",
"#d c #fec86b",
".h c #fec96c",
".O c #fec96d",
"#s c #feca6e",
"ag c #feca70",
"ay c #fecb72",
"aS c #fecc75",
"#j c #fecc76",
"aQ c #fecd77",
"af c #fecd78",
".i c #fecd79",
"#o c #fecf7e",
"#n c #fed080",
"am c #fed081",
".j c #fed184",
"au c #fed285",
"aG c #fed286",
"#4 c #fed287",
"#O c #fed388",
"#N c #ffd388",
".Q c #ffd489",
"#r c #ffd48a",
"aW c #ffd48b",
"ax c #ffd58e",
".k c #ffd68f",
"aq c #ffd792",
"at c #ffd793",
"aJ c #ffd794",
"#P c #ffd895",
".B c #ffd896",
"#m c #ffd996",
"aa c #ffd997",
"#J c #ffd998",
"#2 c #ffd999",
".l c #ffda9a",
"#z c #ffdb9e",
"#C c #ffdca0",
"aw c #ffdca2",
"#B c #ffdda4",
".m c #ffdea5",
"ah c #ffdea6",
"#l c #ffdfa7",
"aB c #ffe0aa",
".N c #ffe0ab",
".u c #ffe1ae",
"as c #ffe1af",
".6 c #ffe2b0",
".n c #ffe2b1",
"aT c #ffe2b2",
"aC c #ffe3b2",
"#A c #ffe3b3",
"#M c #ffe4b5",
"#Y c #ffe5b8",
".R c #ffe5b9",
"aE c #ffe5ba",
"ai c #ffe6bb",
".o c #ffe6bc",
"al c #ffe7be",
"a5 c #ffe7bf",
"#R c #ffe8c0",
"aF c #ffe9c3",
".G c #ffeac6",
".p c #ffeac7",
"#E c #ffebc8",
"#W c #ffebc9",
"#f c #ffebca",
".A c #ffeccb",
"aA c #ffeccc",
"ab c #ffeccd",
"#X c #ffedce",
".q c #ffeed2",
"#0 c #ffefd5",
"aU c #fff1d8",
"#7 c #fff1da",
"#Z c #fff2db",
".F c #fff2dc",
".r c #fff3dd",
"#F c #fff3de",
"aH c #fff3df",
"## c #fff4e0",
"an c #fff4e1",
"a2 c #fff4e2",
"ac c #fff5e3",
".t c #fff5e4",
"aL c #fff5e5",
"#v c #fff5e6",
"a6 c #fff6e6",
"#K c #fff6e7",
"az c #fff6e8",
"#a c #fff7ea",
".y c #fff8ed",
".5 c #fff9f0",
"a. c #fffaf1",
".K c #fffaf2",
"aY c #fffbf3",
"aK c #fffbf4",
"av c #fffbf5",
"#S c #fffcf7",
"ae c #fffcf8",
".z c #fffdf8",
"a3 c #fffdf9",
".0 c #fffdfa",
"aj c #fffefb",
"#y c #fffefc",
"a# c #fffefd",
"#g c #fffffe",
".s c #ffffff",
"QtQtQtQtQtQtQtQtQtQtQtQtQtQt.#.a.b.c.d.e.f.g.h.i.j.k.l.m.n.o.p.q.r.s.s.s.s.s.s.t.u.i.v.wQtQtQtQt",
"QtQtQtQtQtQtQtQtQtQtQtQtQtQtQtQtQtQtQtQtQtQtQtQtQtQtQtQtQtQtQtQt.x.y.z.A.B.C.DQtQtQtQtQtQtQtQtQt",
"QtQtQtQtQtQtQtQtQtQtQtQtQtQtQtQtQtQtQtQtQtQtQtQtQtQtQtQtQtQtQt.E.F.G.HQtQtQtQtQtQtQtQtQtQtQtQt.I",
"QtQtQtQtQtQtQtQtQtQtQtQtQtQtQtQtQtQtQtQtQtQtQtQtQtQtQtQtQtQt.J.G.K.LQtQtQtQtQtQtQtQtQtQtQtQtQtQt",
".MQtQtQtQtQtQtQtQtQtQtQtQtQtQtQtQtQtQtQtQtQtQtQtQtQtQtQtQt.M.N.s.OQtQtQtQtQtQtQtQtQtQtQtQtQtQtQt",
".PQtQtQtQtQtQtQtQtQtQtQtQtQtQtQtQtQtQtQtQtQtQtQtQtQtQtQtQt.Q.s.RQt.SQtQtQtQtQtQtQtQtQtQtQtQtQt.x",
".TQtQtQtQtQtQtQtQtQtQtQtQtQtQtQtQtQtQtQtQtQtQtQtQtQtQtQt.U.s.y.VQtQtQtQtQtQtQtQtQtQtQt.S.WQtQt.X",
".YQtQtQtQtQtQtQtQtQtQtQtQtQtQtQtQtQtQtQtQtQtQtQtQtQtQt.Z.0.s.1QtQtQtQtQtQtQtQtQtQtQtQtQt.2QtQt.3",
".fQtQtQtQtQtQtQtQtQtQtQtQtQtQtQtQtQtQtQtQtQtQtQtQtQt.4.5.s.6Qt.SQtQtQtQtQtQtQtQtQtQtQt.7QtQtQt.8",
".9QtQtQtQtQtQtQtQtQtQtQtQtQtQtQtQtQtQtQtQtQtQtQtQt#.##.s#a#bQtQtQtQtQtQtQtQtQtQtQtQtQt#cQtQtQt.d",
"#dQtQtQtQtQtQtQtQtQtQtQtQtQtQtQtQtQtQtQtQtQtQtQt#e#f.s#g#hQtQtQtQtQtQtQtQtQtQtQtQtQt#i.aQtQtQt.v",
"#jQtQtQtQtQtQtQtQtQtQtQtQtQtQtQtQtQtQtQtQtQtQt#k.6.s.s#lQtQtQtQtQtQtQtQtQtQtQtQtQt.w#mQtQtQtQt.Y",
"#nQtQtQtQtQtQtQtQtQtQtQtQtQtQtQtQtQtQtQtQtQtQt.k.s.s.t.7QtQtQtQtQtQtQtQtQtQtQtQtQt#o#pQtQtQtQt#q",
"#rQtQtQtQtQtQtQtQtQtQtQtQtQtQtQtQtQtQtQtQtQt#s.s.s#g#tQtQtQtQtQtQtQtQtQtQtQtQtQt#u#v.JQtQtQtQt#w",
".BQtQtQtQtQtQtQtQtQtQtQtQtQtQtQtQtQtQtQtQt#x#y.s.s#zQtQtQtQtQtQtQtQtQtQtQtQtQtQt#A#BQtQtQtQtQt.Z",
"#CQtQtQtQtQtQtQtQtQtQtQtQtQtQtQtQtQt#e#D#E.s.s.s#F#GQtQtQtQtQtQtQtQtQtQtQtQtQt.f#g#HQtQtQtQtQt#H",
".NQtQtQtQtQtQtQtQtQtQtQtQtQtQtQt#I#J.5.s.s.s.s#y#cQtQtQtQtQtQtQtQtQtQtQtQtQt.J#F#K.MQtQtQtQtQt#L",
"#MQtQtQtQtQtQtQtQtQtQtQtQt#e.U#E.s.s.s.s.s.s.s#NQtQtQtQtQtQtQtQtQtQtQtQtQtQt#O.s#PQtQtQtQtQtQt#Q",
"#RQtQtQtQtQtQtQtQtQtQt#I#J.5.s.s.s.s.s.s.s#S.iQtQtQtQtQtQtQtQtQtQtQtQtQtQt#T#S.s#UQtQtQtQtQtQt#V",
".AQtQtQtQtQtQtQt#e.U#W.s.s.s.s.s.s.s.s.s#X.4QtQtQtQtQtQtQtQtQtQtQtQtQt.SQt#Y.s#ZQtQtQtQtQtQtQt#h",
"#0QtQtQtQtQt#1#2.5.s.s.s.s.s.s.s.s.s.0#N.#QtQtQtQtQtQtQtQtQtQtQtQtQtQtQt#3.s.s#4QtQtQtQtQtQtQt#5",
"##QtQt#G#6#f.s.s.s.s.s.s.s.s.s.s.s#7.vQtQtQtQtQtQtQtQtQtQtQtQtQtQtQtQt#8##.s#g#9QtQtQtQtQtQtQt.C",
"#a.3.la..s.s.s.s.s.s.s.s.s.s.sa#aa#8QtQtQtQtQtQtQtQtQtQtQtQtQtQtQtQtQt#r.s.sabQtQtQtQtQtQtQtQt#D",
".s.s.s.s.s.s.s.s.s.s.s.s.s.sacadQtQtQtQtQtQtQtQtQtQtQtQtQtQtQtQtQtQt#9ae.s.safQtQtQtQtQtQtQtQtag",
".s.s.s.s.s.s.s.s.s.s.s.s#gah.aQtQtQtQtQtQtQtQtQtQtQtQtQtQtQtQtQtQtQtai.s.saj.VQtQtQtQtQtQtQtQt.i",
".s.s.s.s.s.s.s.s.s.s.s#aakQtQtQtQtQtQtQtQtQtQtQtQtQtQtQtQtQtQtQtQtak.s.s.salQtQtQtQtQtQtQtQtQtam",
".s.s.s.s.s.s.s.s.s.s#M.VQt.SQtQtQtQtQtQtQtQtQtQtQtQtQtQtQtQtQtQt#ean.s.s.s.UQtQtQtQtQtQtQtQtQt.Q",
".s.s.s.s.s.s.s.san.1QtQtQtQtQtQtQtQtQtQtQtQtQtQtQtQtQtQtQtQtQtaoai.s.s.s#SapQtQtQtQtQtQtQtQtQtaq",
".s.s.s.s.s.taa#wQtQt.SQtQtQtQtQtQtQtQtQtQtQtQtQtQtQtQtQtQtar#J.z.s.s.s.sasQtQtQtQtQtQtQtQtQtQt#2",
".s.s##at.YQtQtQtQtQtQtQtQtQtQtQtQtQtQtQtQtQtQtQtQtQtQt#Gau.K.s.s.s.s.savQtQtQtQtQtQtQtQtQtQtQtaw",
"ax#UQtQtQtQtQtQtQtQtQtQtQtQtQtQtQtQtQtQtQtQtQt.SQt.#ayaz.s.s.s.s.s.saA.xQtQtQtQtQtQtQtQtQtQtQtaB",
"QtQtQtQtQtQtQtQtQtQtQtQtQtQtQtQtQtQtQtQtQtQtQtQt.C.F.s.s.s.s.s.saj#N.#QtQtQtQtQtQtQtQtQtQtQtQtaC",
"QtQtQtQtQtQtQtQtQtQtQtQtQtQtQtQtQtQtQtQtQtQt.eaA.s.s.s.s.s.s.s.FaDQtQtQtQtQtQtQtQtQtQtQtQtQtQtai",
".aQtQtQtQtQtQtQtQtQtQtQtQtQtQtQtQtQtQtQt#1aE#g.s.s.s.s.s.s#g#C#GQtQtQtQtQtQtQtQtQtQtQtQtQtQtQtaF",
"aGQtQtQtQtQtQtQtQtQtQtQtQtQtQtQtQtQt#uah#y.s.s.s.s.s.s.s#a#3QtQtQtQtQtQtQtQtQtQtQtQtQtQtQtQtQtaA",
"aHQtQtQtQtQtQtQtQtQtQtQtQtQtQtQtaIaJae.s.s.s.s.s.s.s.s#Y.VQtQtQtQtQtQtQtQtQtQtQtQtQtQtQtQtQtQt.r",
".s.LQtQtQtQtQtQtQtQtQtQtQtQt#8#n.5.s.s.s.s.s.s.s.savagQtQtQtQtQtQtQtQtQtQtQtQtQtQtQtQtQtQtQtQtaK",
".s#LQtQtQtQtQtQtQtQtQtQtQtQtaL.s.s.s.s.s.s.s.s.saA.xQt.SQtQtQtQtQtQtQtQtQtQtQtQtQtQtQtQtQtQtaM.s",
".saNQtQtQtQtQtQtQtQtQtQtQt.x#g.s.s.s.s.s.s.s.sawQtQtQtQtQtQtQtQtQtQtQtQtQtQtQtQtQtQtQtQtQtQt#9.s",
".s.9QtQtQtQtQtQtQtQtQtQtQtQtab.s.s.s.s.s.s.s.saOQtQtQtQtQtQtQtQtQtQtQtQtQtQtQtQtQtQtQtQtQtQtaP.s",
".s#1QtQtQtQtQtQtQtQtQtQtQtQtaQ.s.s.s.s.s.s.s.saJQtQtQtQtQtQtQtQtQtQtQtQtQtQtQtQtQtQtQtQtQtQtaR.s",
"aK.JQtQtQtQtQtQtQtQtQtQtQtQt.Vaj.s.s.s.s.s.s.s#yaDQtQtQtQtQtQtQtQtQtQtQtQtQtQtQtQtQtQtQtQtQtaS.s",
"aTQtQtQtQtQtQtQtQtQtQtQtQtQtQt.o.s.s.s.s.s.s.s.saUaVQtQtQtQtQtQtQtQtQtQtQtQtQtQtQtQtQtQtQtQtaW.s",
"aNQtQtQtQtQtQtQtQtQtQtQtQtQtQtaN.s.s.s.s.s.s.s.s.saxQtQtQtQtQtQtQtQtQtQtQtQtQtQtQtQtQtQtQtQt#M.s",
"aXQtQtQtQtQtQtQtQtQtQtQtQtQtQtaMav.s.s.s.s.s.s.s.saj#UQtQtQtQtQtQtQtQtQtQtQtQtQtQtQtQtQtQt.waY.s",
"QtQtQtQtQtQtQtQtQtQtQtQtQtQtQtQt.N.s.s.s.s.s.s.s.s.s#0aZQtQtQtQtQtQtQtQtQtQtQtQtQtQtQtQtQta0.s.s",
"QtQtQtQtQtQtQtQtQtQtQtQtQtQtQtQt.f.s.s.s.s.s.s.s.s.s.s.QQtQtQtQtQtQtQtQtQtQtQtQtQtQt.Pa1.1a2.s.s",
"QtQtQtQtQtQtQtQtQtQtQtQtQtQtQtQtQt#S.s.s.s.s.s.s.s.s.sa3a4QtQtQtQtQtQtQt.VaOay#Ja5a6#g.s.s.s.s.s"};
